%TF.GenerationSoftware,KiCad,Pcbnew,8.0.0*%
%TF.CreationDate,2024-05-01T17:20:29-04:00*%
%TF.ProjectId,planar_transformer_v2,706c616e-6172-45f7-9472-616e73666f72,rev?*%
%TF.SameCoordinates,Original*%
%TF.FileFunction,Copper,L3,Inr*%
%TF.FilePolarity,Positive*%
%FSLAX46Y46*%
G04 Gerber Fmt 4.6, Leading zero omitted, Abs format (unit mm)*
G04 Created by KiCad (PCBNEW 8.0.0) date 2024-05-01 17:20:29*
%MOMM*%
%LPD*%
G01*
G04 APERTURE LIST*
%TA.AperFunction,ComponentPad*%
%ADD10C,2.476500*%
%TD*%
%TA.AperFunction,ViaPad*%
%ADD11C,0.500000*%
%TD*%
%TA.AperFunction,Conductor*%
%ADD12C,0.520000*%
%TD*%
G04 APERTURE END LIST*
D10*
%TO.N,Net-(J1-Pin_1)*%
%TO.C,J1*%
X121590400Y-101498400D03*
X121590400Y-93998400D03*
%TO.N,Net-(J1-Pin_3)*%
X141630400Y-93998400D03*
X141630400Y-101498400D03*
%TD*%
D11*
%TO.N,Net-(J1-Pin_3)*%
X136042400Y-94538800D03*
%TD*%
D12*
%TO.N,Net-(J1-Pin_3)*%
X126422000Y-96171600D02*
X136722000Y-96171600D01*
X139155600Y-93738000D02*
X139155600Y-89336000D01*
X124706800Y-89493600D02*
X124706800Y-94456400D01*
X136750000Y-86930400D02*
X126450000Y-86930400D01*
X138335600Y-93738000D02*
X138335600Y-89336000D01*
X138637200Y-96991600D02*
X141630400Y-93998400D01*
X126422000Y-95351600D02*
X136722000Y-95351600D01*
X123886800Y-89493600D02*
X123886800Y-94456400D01*
X136042400Y-94538800D02*
X136331264Y-94538800D01*
X137312400Y-94132400D02*
X137348157Y-94096643D01*
X136750000Y-87750400D02*
X126450000Y-87750400D01*
X126422000Y-96991600D02*
X138637200Y-96991600D01*
X125526800Y-89493600D02*
X125526800Y-94456400D01*
X137515600Y-93692400D02*
X137515600Y-89336000D01*
X136750000Y-88570400D02*
X126450000Y-88570400D01*
X139155600Y-89336000D02*
G75*
G03*
X136750000Y-86930400I-2405600J0D01*
G01*
X136331264Y-94538800D02*
G75*
G03*
X137312411Y-94132411I36J1387500D01*
G01*
X137515600Y-89336000D02*
G75*
G03*
X136750000Y-88570400I-765600J0D01*
G01*
X126450000Y-88570400D02*
G75*
G03*
X125526800Y-89493600I0J-923200D01*
G01*
X136722000Y-95351600D02*
G75*
G03*
X138335600Y-93738000I0J1613600D01*
G01*
X137348156Y-94096642D02*
G75*
G03*
X137515595Y-93692400I-404256J404242D01*
G01*
X123886800Y-94456400D02*
G75*
G03*
X126422000Y-96991600I2535200J0D01*
G01*
X136722000Y-96171600D02*
G75*
G03*
X139155600Y-93738000I0J2433600D01*
G01*
X125526800Y-94456400D02*
G75*
G03*
X126422000Y-95351600I895200J0D01*
G01*
X126450000Y-86930400D02*
G75*
G03*
X123886800Y-89493600I0J-2563200D01*
G01*
X138335600Y-89336000D02*
G75*
G03*
X136750000Y-87750400I-1585600J0D01*
G01*
X126450000Y-87750400D02*
G75*
G03*
X124706800Y-89493600I0J-1743200D01*
G01*
X124706800Y-94456400D02*
G75*
G03*
X126422000Y-96171600I1715200J0D01*
G01*
%TD*%
M02*
